<svg width="14" height="14" viewBox="0 0 14 14" fill="none" xmlns="http://www.w3.org/2000/svg">
<path d="M12.0174 8.36531C11.6258 9.41738 11.6492 10.6745 12.4431 11.4682L13.5123 12.5372C13.7817 12.8064 13.7817 13.243 13.5124 13.5123C13.2431 13.7816 12.8065 13.7816 12.5373 13.5122L11.4683 12.443C10.6746 11.6491 9.41748 11.6257 8.36541 12.0173C7.67833 12.273 6.94627 12.4062 6.20262 12.4051C2.77877 12.4051 0 9.62637 0 6.20252C0 2.77867 2.77877 -9.91821e-05 6.20262 -9.91821e-05C9.62646 -9.91821e-05 12.4052 2.77867 12.4052 6.20252C12.4063 6.94617 12.2731 7.67823 12.0174 8.36531ZM9.66575 9.56227C10.5404 8.66281 11.0289 7.45712 11.0269 6.20252C11.0269 3.53746 8.86768 1.37826 6.20262 1.37826C3.53756 1.37826 1.37836 3.53746 1.37836 6.20252C1.37836 8.86758 3.53756 11.0268 6.20262 11.0268C7.45722 11.0288 8.66291 10.5403 9.56237 9.66565L9.66575 9.56227Z" fill="#CACBCC"/>
</svg>
