<svg width="250" height="34" viewBox="0 0 250 34" fill="none" xmlns="http://www.w3.org/2000/svg">
<path d="M146.027 19.5614V17.4657L146.873 17.3888V10.8713C146.22 11.2366 145.643 11.5058 145.105 11.8711C144.643 12.1787 144.278 12.1018 143.816 11.8711C141.356 10.5637 138.683 9.66011 135.934 9.19869C133.185 8.73728 130.57 9.33327 127.994 10.2369C126.609 10.7175 125.302 11.3904 123.937 11.9672C123.745 12.0441 123.437 12.121 123.283 12.0249C121.515 11.0828 119.765 10.1023 117.919 9.06411C118.727 8.62192 119.419 8.21818 120.13 7.83367C124.629 5.33432 129.128 2.83498 133.646 0.354863C133.877 0.239509 134.3 0.277961 134.53 0.412541C138.145 2.39279 141.74 4.41149 145.355 6.41096C145.585 6.54554 145.816 6.6609 146.085 6.8147C146.489 6.31483 146.969 5.93032 147.623 6.33406C148.219 6.69935 148.142 7.25689 147.912 7.83367L150.142 9.08334C149.353 9.52553 148.623 9.92927 147.912 10.3522C147.719 10.4676 147.508 10.7367 147.508 10.929C147.489 13.0246 147.489 15.1202 147.508 17.2158C147.527 17.2927 147.546 17.3504 147.565 17.4273L148.277 17.485V19.5806C147.873 18.9846 147.546 18.5232 147.162 17.9656C146.777 18.4655 146.45 18.9461 146.027 19.5614ZM148.046 8.58347C148.008 8.14128 147.719 7.83367 147.219 7.79522C146.758 7.75676 146.277 8.19896 146.316 8.66037C146.354 9.16024 146.623 9.48708 147.162 9.52553C147.642 9.54475 148.046 9.14102 148.046 8.58347ZM147.604 7.64141C147.873 7.16077 147.912 6.77625 147.45 6.50709C146.989 6.23793 146.643 6.41096 146.412 6.94928L147.604 7.64141Z" fill="white"/>
<path d="M134.069 10.3522C136.338 10.4291 138.587 10.6022 140.76 11.2558C141.087 11.352 141.394 11.4673 141.702 11.6019C142.528 11.948 143.086 12.5055 142.913 13.5053V13.5629C142.817 15.0625 143.124 16.3699 143.913 17.7734C147.143 23.5026 144.163 30.7699 137.837 32.904C132.223 34.8073 126.321 32.3272 124.014 27.0402C122.534 23.6757 122.822 20.3688 124.725 17.235C125.014 16.7928 125.168 16.2738 125.148 15.7354C125.11 14.9087 125.187 14.082 125.129 13.2553C125.072 12.5055 125.418 12.0056 126.033 11.7749C127.244 11.352 128.474 10.9482 129.743 10.7367C131.166 10.506 132.627 10.4676 134.069 10.3522ZM124.514 23.8871C124.322 27.9053 128.974 32.1734 133.665 32.4041C139.664 32.7117 143.317 28.0014 143.682 24.6369C143.509 24.9253 143.374 25.156 143.24 25.3675C142.432 26.6364 141.144 27.1555 139.721 26.7518C139.145 26.5787 138.587 26.348 138.068 26.0404C136.953 25.406 136.261 24.4062 135.665 23.3104C135.415 22.8297 135.242 22.3299 134.954 21.8684C134.78 21.5801 134.473 21.2148 134.204 21.2148C133.954 21.2148 133.646 21.5801 133.454 21.8492C133.262 22.1184 133.146 22.4837 132.992 22.8105C132.281 24.2717 131.358 25.5021 129.878 26.2711C127.629 27.4439 125.744 26.771 124.764 24.4447L124.514 23.8871ZM129.051 19.1768C128.244 19.2537 127.552 19.273 126.879 19.4075C125.629 19.6767 124.86 20.5611 124.783 21.7723C124.687 22.9451 124.937 24.0986 125.514 25.1176C126.071 26.1173 127.109 26.6364 128.225 26.4249C130.589 26.002 131.993 24.4639 132.839 22.3299C133.377 20.9264 132.858 19.9074 131.397 19.5229C130.609 19.3306 129.763 19.2922 129.051 19.1768ZM143.759 22.3106C143.682 20.9264 143.182 19.9459 142.029 19.5806C140.241 19.0038 138.299 19.0615 136.53 19.7344C135.588 20.0997 135.203 20.9072 135.473 21.8492C136.088 24.0217 137.395 25.5982 139.587 26.3096C141.202 26.8287 142.586 26.1558 143.182 24.5408C143.451 23.8487 143.567 23.0604 143.759 22.3106ZM124.706 20.4457C125.533 19.1192 126.821 18.8885 128.205 18.8885C131.935 18.8885 135.665 18.8884 139.375 18.85C140.798 18.8308 142.221 18.7731 143.471 19.7921C143.009 18.7923 142.452 17.8118 141.856 16.889C141.759 16.7352 141.433 16.639 141.221 16.639C136.492 16.6198 131.762 16.6006 127.033 16.6006C126.84 16.6006 126.59 16.639 126.494 16.7544C125.61 17.8503 124.956 19.0423 124.706 20.4457Z" fill="white"/>
<path d="M163.119 13.7552V22.2722H174.327V24.2525H163.119V33.4423H160.831V11.775H175.693V13.7552H163.119Z" fill="white"/>
<path d="M190.227 13.8321V22.2722H201.34V24.2332H190.227V33.3462H187.958V11.8711H202.685V13.8321H190.227Z" fill="white"/>
<path d="M214.913 11.698H217.22V33.4808H214.913V11.698Z" fill="white"/>
<path d="M250 11.7365V33.4616H248.097L234.12 15.8316V33.4616H231.851V11.7365H233.754L247.751 29.3665V11.7365H250Z" fill="white"/>
<path d="M8.48661 13.486H0.700195V11.4673H18.5993V13.486H10.8321V33.6154H8.48661V13.486Z" fill="white"/>
<path d="M38.7478 33.8461C36.5369 33.8461 34.5374 33.3655 32.7494 32.385C30.9614 31.3852 29.5772 30.0394 28.5582 28.3091C27.5585 26.598 27.0586 24.6562 27.0586 22.5222C27.0586 20.3881 27.5585 18.4463 28.5582 16.7352C29.5772 15.0241 30.9806 13.6783 32.7494 12.6978C34.5566 11.6981 36.5561 11.1982 38.7478 11.1982C40.9396 11.1982 42.939 11.6789 44.6886 12.6594C46.4766 13.6399 47.8608 14.9857 48.8798 16.7352C49.8987 18.4463 50.3986 20.3881 50.3986 22.5222C50.3986 24.6562 49.8987 26.598 48.8798 28.3283C47.8608 30.0394 46.4573 31.3852 44.6886 32.3657C42.9198 33.3655 40.9396 33.8461 38.7478 33.8461ZM38.7478 31.7505C40.4974 31.7505 42.0931 31.366 43.5158 30.5777C44.9385 29.7703 46.0536 28.6744 46.8611 27.2709C47.6686 25.8482 48.0723 24.2717 48.0723 22.5414C48.0723 20.8111 47.6686 19.2346 46.8611 17.8311C46.0536 16.4084 44.9385 15.3125 43.5158 14.5243C42.0931 13.7168 40.5166 13.313 38.7478 13.313C36.9791 13.313 35.3833 13.7168 33.9414 14.5243C32.5187 15.3125 31.4036 16.4084 30.5769 17.8311C29.7694 19.2346 29.3657 20.7918 29.3657 22.5414C29.3657 24.2909 29.7694 25.8482 30.5769 27.2709C31.4036 28.6744 32.5187 29.7703 33.9414 30.5777C35.3833 31.366 36.9791 31.7505 38.7478 31.7505Z" fill="white"/>
<path d="M70.9506 11.3904C73.7961 11.3904 76.0262 12.0633 77.6412 13.4283C79.2562 14.7933 80.0636 16.6582 80.0636 19.023C80.0636 21.3878 79.2562 23.2719 77.6412 24.6177C76.0262 25.9635 73.7961 26.6171 70.9506 26.6171H64.9715V33.673H62.6067V11.3904H70.9506ZM70.893 24.5792C73.1039 24.5792 74.7958 24.0986 75.9493 23.1373C77.1221 22.1568 77.6989 20.7918 77.6989 19.023C77.6989 17.2542 77.1221 15.8315 75.9493 14.8895C74.7766 13.9089 73.1039 13.4283 70.893 13.4283H64.9715V24.56H70.893V24.5792Z" fill="white"/>
<path d="M105.903 22.1953C107.365 22.5029 108.48 23.1374 109.249 24.0986C110.056 25.0215 110.46 26.2327 110.46 27.7131C110.46 29.6164 109.749 31.0776 108.345 32.1158C106.961 33.1347 104.884 33.6346 102.135 33.6346H91.9456V11.4673H101.501C103.962 11.4673 105.884 11.9672 107.23 12.9477C108.595 13.9475 109.287 15.3509 109.287 17.1582C109.287 18.3886 108.98 19.4268 108.364 20.2919C107.788 21.1379 106.961 21.7723 105.903 22.1953ZM94.2911 13.3899V21.4263H101.347C103.135 21.4263 104.519 21.0802 105.5 20.4073C106.461 19.7152 106.961 18.7154 106.961 17.4081C106.961 16.1007 106.48 15.101 105.5 14.4281C104.538 13.736 103.154 13.3899 101.347 13.3899H94.2911ZM102.116 31.6736C104.096 31.6736 105.596 31.3275 106.615 30.6546C107.634 29.9817 108.134 28.9243 108.134 27.4824C108.134 24.7139 106.134 23.3296 102.116 23.3296H94.3103V31.6543H102.116V31.6736Z" fill="white"/>
</svg>
