<svg width="560" height="76" viewBox="0 0 560 76" fill="none" xmlns="http://www.w3.org/2000/svg">
<path d="M326.739 43.2426V38.5412L328.637 38.3687V23.7467C327.171 24.5663 325.877 25.1701 324.669 25.9896C323.634 26.6797 322.814 26.5072 321.779 25.9896C316.258 23.0566 310.263 21.0294 304.095 19.9942C297.927 18.959 292.061 20.2961 286.281 22.3234C283.175 23.4017 280.242 24.9113 277.18 26.2053C276.749 26.3778 276.058 26.5504 275.713 26.3347C271.745 24.2212 267.82 22.0214 263.679 19.6923C265.491 18.7002 267.044 17.7944 268.64 16.9318C278.733 11.3246 288.826 5.71733 298.962 0.153237C299.479 -0.105558 300.428 -0.0192929 300.946 0.282635C309.055 4.72529 317.121 9.2542 325.23 13.74C325.747 14.0419 326.265 14.3007 326.869 14.6458C327.774 13.5243 328.853 12.6617 330.319 13.5675C331.656 14.387 331.484 15.6378 330.966 16.9318L335.97 19.7354C334.201 20.7275 332.562 21.6332 330.966 22.5822C330.535 22.841 330.06 23.4448 330.06 23.8761C330.017 28.5776 330.017 33.279 330.06 37.9805C330.104 38.153 330.147 38.2824 330.19 38.4549L331.786 38.5843V43.2858C330.88 41.9487 330.147 40.9135 329.284 39.6626C328.421 40.7841 327.688 41.8624 326.739 43.2426ZM331.268 18.614C331.182 17.6219 330.535 16.9318 329.413 16.8455C328.378 16.7593 327.3 17.7513 327.386 18.7865C327.472 19.9079 328.076 20.6412 329.284 20.7275C330.362 20.7706 331.268 19.8648 331.268 18.614ZM330.276 16.5005C330.88 15.4222 330.966 14.5595 329.931 13.9556C328.896 13.3518 328.119 13.74 327.602 14.9477L330.276 16.5005Z" fill="white"/>
<path d="M299.911 22.5823C305 22.7548 310.047 23.143 314.921 24.6095C315.654 24.8252 316.344 25.084 317.034 25.3859C318.889 26.1623 320.14 27.4131 319.752 29.656V29.7854C319.536 33.1497 320.226 36.0828 321.995 39.2314C329.241 52.0849 322.555 68.389 308.365 73.1767C295.77 77.4469 282.528 71.8828 277.352 60.0213C274.031 52.4731 274.678 45.0543 278.948 38.0237C279.595 37.0317 279.94 35.8671 279.897 34.6594C279.811 32.8047 279.984 30.95 279.854 29.0953C279.725 27.4131 280.501 26.2917 281.881 25.7741C284.599 24.8252 287.359 23.9194 290.206 23.4449C293.398 22.9273 296.676 22.8411 299.911 22.5823ZM278.474 52.9476C278.043 61.9623 288.481 71.5377 299.005 72.0553C312.462 72.7454 320.658 62.1779 321.477 54.6297C321.089 55.2767 320.787 55.7943 320.485 56.2688C318.673 59.1155 315.784 60.2801 312.592 59.3743C311.298 58.9861 310.047 58.4685 308.882 57.7784C306.381 56.3551 304.828 54.1122 303.491 51.6536C302.93 50.5753 302.542 49.4538 301.895 48.4187C301.507 47.7717 300.817 46.9522 300.213 46.9522C299.652 46.9522 298.962 47.7717 298.531 48.3755C298.099 48.9794 297.84 49.7989 297.495 50.5322C295.899 53.8102 293.829 56.5707 290.508 58.296C285.461 60.9271 281.234 59.4175 279.035 54.1984L278.474 52.9476ZM288.653 42.3801C286.842 42.5526 285.289 42.5958 283.779 42.8977C280.976 43.5016 279.25 45.4857 279.078 48.203C278.862 50.8341 279.423 53.422 280.717 55.7081C281.968 57.951 284.297 59.1155 286.799 58.6411C292.104 57.6922 295.252 54.2416 297.15 49.4538C298.358 46.3052 297.193 44.0191 293.915 43.1565C292.147 42.7252 290.249 42.6389 288.653 42.3801ZM321.65 49.4107C321.477 46.3052 320.356 44.1054 317.768 43.2859C313.756 41.9919 309.4 42.1213 305.432 43.631C303.318 44.4505 302.456 46.262 303.059 48.3755C304.44 53.2495 307.373 56.7864 312.29 58.3823C315.913 59.5469 319.019 58.0372 320.356 54.4141C320.959 52.8613 321.218 51.0929 321.65 49.4107ZM278.905 45.2269C280.76 42.2507 283.65 41.7331 286.755 41.7331C295.123 41.7331 303.491 41.7331 311.815 41.6469C315.007 41.6037 318.199 41.4743 321.003 43.7603C319.967 41.5175 318.717 39.3177 317.379 37.2473C317.164 36.9023 316.431 36.6866 315.956 36.6866C305.346 36.6435 294.735 36.6003 284.124 36.6003C283.693 36.6003 283.132 36.6866 282.917 36.9454C280.932 39.404 279.466 42.0782 278.905 45.2269Z" fill="white"/>
<path d="M365.083 30.2168V49.3245H390.229V53.7672H365.083V74.3845H359.95V25.7742H393.292V30.2168H365.083Z" fill="white"/>
<path d="M425.9 30.3893V49.3244H450.831V53.724H425.9V74.1688H420.811V25.9897H453.85V30.3893H425.9Z" fill="white"/>
<path d="M481.283 25.6016H486.459V74.4707H481.283V25.6016Z" fill="white"/>
<path d="M560 25.6877V74.4275H555.73L524.373 34.875V74.4275H519.283V25.6877H523.553L554.954 65.2403V25.6877H560Z" fill="white"/>
<path d="M18.1686 29.6129H0.699951V25.084H40.8563V29.6129H23.4308V74.7727H18.1686V29.6129Z" fill="white"/>
<path d="M86.0593 75.2904C81.0991 75.2904 76.6133 74.212 72.6019 72.0123C68.5906 69.7694 65.4851 66.7501 63.199 62.8682C60.9562 59.0294 59.8347 54.673 59.8347 49.8853C59.8347 45.0976 60.9562 40.7412 63.199 36.9024C65.4851 33.0636 68.6338 30.0443 72.6019 27.8446C76.6564 25.6017 81.1422 24.4802 86.0593 24.4802C90.9764 24.4802 95.4622 25.5585 99.3873 27.7583C103.399 29.9581 106.504 32.9773 108.79 36.9024C111.076 40.7412 112.198 45.0976 112.198 49.8853C112.198 54.673 111.076 59.0294 108.79 62.9113C106.504 66.7501 103.355 69.7694 99.3873 71.9692C95.4191 74.212 90.9764 75.2904 86.0593 75.2904ZM86.0593 70.5889C89.9844 70.5889 93.5644 69.7263 96.7562 67.9578C99.948 66.1463 102.45 63.6877 104.261 60.539C106.073 57.3472 106.979 53.8104 106.979 49.9284C106.979 46.0465 106.073 42.5096 104.261 39.361C102.45 36.1691 99.948 33.7106 96.7562 31.9422C93.5644 30.1306 90.0275 29.2248 86.0593 29.2248C82.0911 29.2248 78.5111 30.1306 75.2762 31.9422C72.0844 33.7106 69.5827 36.1691 67.728 39.361C65.9164 42.5096 65.0106 46.0034 65.0106 49.9284C65.0106 53.8535 65.9164 57.3472 67.728 60.539C69.5827 63.6877 72.0844 66.1463 75.2762 67.9578C78.5111 69.7263 82.0911 70.5889 86.0593 70.5889Z" fill="white"/>
<path d="M158.306 24.9114C164.689 24.9114 169.693 26.421 173.316 29.4834C176.939 32.5458 178.751 36.7297 178.751 42.035C178.751 47.3403 176.939 51.5673 173.316 54.5866C169.693 57.6058 164.689 59.0724 158.306 59.0724H144.891V74.902H139.586V24.9114H158.306ZM158.176 54.5003C163.137 54.5003 166.932 53.422 169.52 51.2654C172.151 49.0656 173.445 46.0032 173.445 42.035C173.445 38.0668 172.151 34.875 169.52 32.7615C166.889 30.5617 163.137 29.4834 158.176 29.4834H144.891V54.4572H158.176V54.5003Z" fill="white"/>
<path d="M236.721 49.1519C240 49.8421 242.501 51.2654 244.226 53.4221C246.038 55.4924 246.944 58.2098 246.944 61.531C246.944 65.8011 245.348 69.0792 242.199 71.4083C239.094 73.6943 234.435 74.8158 228.267 74.8158H205.407V25.084H226.844C232.365 25.084 236.678 26.2054 239.698 28.4052C242.76 30.6481 244.313 33.7968 244.313 37.8512C244.313 40.6117 243.623 42.9409 242.242 44.8818C240.948 46.7796 239.094 48.203 236.721 49.1519ZM210.669 29.3972V47.4266H226.499C230.51 47.4266 233.616 46.6503 235.816 45.1406C237.972 43.5878 239.094 41.3449 239.094 38.4119C239.094 35.4789 238.015 33.236 235.816 31.7264C233.659 30.1736 230.553 29.3972 226.499 29.3972H210.669ZM228.224 70.4163C232.667 70.4163 236.031 69.6399 238.317 68.1303C240.603 66.6206 241.725 64.2483 241.725 61.0134C241.725 54.8023 237.239 51.6968 228.224 51.6968H210.713V70.3731H228.224V70.4163Z" fill="white"/>
</svg>
